<?xml version="1.0" standalone="no"?>
<!DOCTYPE svg PUBLIC "-//W3C//DTD SVG 20010904//EN"
 "http://www.w3.org/TR/2001/REC-SVG-20010904/DTD/svg10.dtd">
<svg version="1.0" xmlns="http://www.w3.org/2000/svg"
 width="900.000000pt" height="900.000000pt" viewBox="0 0 900.000000 900.000000"
 preserveAspectRatio="xMidYMid meet">
<metadata>
Created by potrace 1.14, written by Peter Selinger 2001-2017
</metadata>
<g transform="translate(0.000000,900.000000) scale(0.100000,-0.100000)"
fill="#000000" stroke="none">
<path d="M5468 7980 c-3 -9 -45 -17 -126 -25 -18 -2 -53 -13 -78 -24 -24 -12
-48 -21 -53 -21 -5 0 -12 -7 -15 -16 -3 -8 -10 -13 -15 -9 -6 3 -20 -8 -32
-25 -13 -16 -29 -30 -36 -30 -8 0 -12 -4 -9 -9 3 -5 -4 -11 -15 -14 -15 -4
-20 -11 -15 -22 3 -9 2 -13 -4 -10 -10 6 -14 -8 -10 -35 1 -8 -2 -12 -6 -7 -9
9 -44 -22 -44 -40 0 -7 -5 -13 -12 -13 -6 0 -3 -7 8 -15 10 -8 15 -15 9 -14
-5 1 -17 1 -25 -1 -11 -1 -9 -4 5 -10 16 -7 16 -9 4 -9 -9 -1 -20 -8 -23 -17
-8 -22 3 -33 14 -14 17 27 22 2 5 -27 -9 -15 -14 -21 -12 -12 3 9 -1 16 -9 16
-18 0 -18 -11 1 -27 20 -17 19 -34 -1 -26 -13 5 -14 3 -7 -6 16 -21 14 -61 -3
-54 -19 7 -18 -6 4 -30 18 -19 19 -44 1 -44 -4 0 -6 8 -2 18 3 9 3 14 -1 10
-5 -4 -19 -2 -33 3 -20 7 -28 5 -42 -12 -14 -17 -18 -19 -18 -6 0 9 4 14 9 11
4 -3 8 0 8 5 0 11 -19 16 -53 13 -10 -1 -15 3 -12 8 3 6 3 11 -2 11 -25 4 -72
9 -100 11 -18 1 -33 5 -33 8 0 3 -37 6 -83 6 -45 1 -96 4 -114 6 -17 3 -37 2
-44 -3 -7 -4 -18 -5 -24 -1 -15 10 -138 10 -152 0 -6 -5 -14 -5 -17 0 -7 11
-196 3 -276 -12 -14 -3 -38 1 -54 8 -26 10 -32 10 -48 -6 -14 -14 -23 -16 -42
-8 -16 6 -27 6 -31 -1 -4 -5 -11 -7 -16 -4 -5 4 -43 -6 -85 -20 -42 -14 -81
-24 -87 -22 -7 2 -18 -3 -25 -12 -11 -14 -11 -14 -5 3 5 16 3 18 -11 13 -10
-4 -22 -7 -27 -7 -5 0 -8 -6 -7 -12 2 -8 -6 -12 -19 -11 -13 2 -23 -1 -23 -6
0 -5 -11 -11 -25 -13 -13 -3 -23 -1 -22 5 1 5 -5 12 -13 14 -10 3 -11 2 -3 -4
8 -6 9 -13 2 -23 -8 -12 -12 -12 -16 -2 -4 10 -11 8 -29 -9 -13 -12 -32 -23
-41 -24 -32 -4 -54 -17 -50 -30 3 -6 0 -12 -6 -12 -7 0 -20 -4 -31 -8 -16 -7
-17 -4 -12 16 3 13 3 18 0 11 -3 -6 -10 -10 -14 -7 -5 3 -12 0 -16 -6 -5 -8
-2 -10 7 -5 8 4 3 -2 -11 -13 -14 -11 -32 -21 -42 -21 -9 0 -18 -3 -21 -7 -2
-5 -2 -2 -1 5 3 11 -9 16 -28 13 -15 -2 -8 17 8 23 19 7 15 52 -4 48 -8 -1
-11 2 -6 9 12 20 14 69 3 69 -6 0 -7 -4 -4 -10 3 -5 1 -10 -5 -10 -19 0 -30
44 -13 57 9 7 11 13 4 18 -6 3 -11 2 -11 -3 0 -14 -39 -22 -47 -10 -3 7 -1 8
5 4 7 -4 12 0 12 10 0 10 -3 15 -6 11 -6 -6 -46 26 -101 81 -18 19 -33 28 -33
22 0 -10 -3 -10 -15 0 -8 7 -15 20 -15 29 0 13 -2 13 -9 2 -6 -9 -15 -11 -27
-6 -11 5 -23 7 -27 6 -5 -1 -6 7 -3 17 11 34 -21 49 -119 55 -23 2 -47 7 -54
12 -10 5 -12 4 -7 -3 4 -7 1 -12 -8 -12 -9 0 -16 4 -16 8 0 5 -7 9 -15 9 -8 0
-12 -4 -9 -9 3 -4 -4 -8 -15 -8 -12 0 -21 6 -21 13 0 9 -2 9 -8 -1 -14 -21
-52 -24 -52 -4 0 13 -2 14 -9 4 -4 -7 -17 -15 -27 -17 -10 -2 -19 -4 -19 -5 0
-1 -13 -3 -30 -5 -50 -4 -150 -47 -176 -77 -9 -10 -19 -18 -23 -18 -8 0 -36
-25 -89 -79 -66 -68 -87 -91 -87 -98 0 -3 -8 -12 -17 -20 -12 -10 -13 -12 -3
-8 10 4 9 2 -2 -8 -10 -8 -18 -19 -18 -26 0 -6 -7 -28 -17 -49 -20 -46 -20
-46 -22 -78 0 -14 -5 -22 -11 -19 -13 8 -13 -1 1 -27 8 -16 8 -19 -1 -13 -9 6
-9 2 -1 -14 10 -18 9 -21 -6 -21 -17 -1 -17 -1 0 -14 18 -14 24 -32 7 -21 -13
8 -13 -11 1 -37 7 -13 7 -18 1 -14 -6 4 -10 -2 -9 -14 1 -11 5 -20 10 -20 4 0
5 -4 2 -10 -8 -12 19 -101 39 -132 9 -14 13 -28 9 -31 -3 -4 -2 -7 4 -7 6 0
14 -12 17 -26 4 -15 10 -24 13 -20 3 3 19 -12 35 -34 17 -22 36 -40 44 -40 8
0 13 -5 11 -12 -1 -6 8 -17 20 -23 13 -7 21 -14 18 -16 -2 -3 24 -15 58 -28
34 -13 72 -27 85 -32 26 -10 42 -41 24 -47 -7 -2 -10 -8 -6 -13 3 -5 1 -9 -5
-9 -5 0 -11 6 -13 12 -3 7 -10 -2 -16 -21 -10 -28 -9 -32 3 -28 9 4 12 1 8 -9
-3 -8 -11 -13 -18 -10 -8 3 -10 -4 -7 -19 2 -12 -2 -26 -9 -30 -9 -6 -11 -3
-6 8 3 10 2 17 -3 17 -15 0 -12 -40 3 -40 6 0 1 -9 -13 -20 -14 -10 -21 -22
-17 -26 4 -4 7 -1 7 6 0 7 3 10 6 7 4 -4 1 -13 -6 -22 -7 -8 -9 -15 -5 -15 4
0 3 -6 -2 -12 -5 -7 -15 -32 -23 -55 -7 -24 -18 -43 -23 -43 -5 0 -4 -7 3 -15
9 -11 9 -15 1 -15 -7 0 -9 -4 -6 -10 3 -5 2 -10 -2 -10 -4 0 -7 -29 -6 -65 2
-46 -1 -64 -9 -59 -6 4 -9 1 -6 -7 3 -8 1 -23 -5 -34 -10 -19 -9 -19 8 -5 17
13 16 10 -3 -24 -17 -28 -19 -37 -8 -33 12 5 13 1 6 -17 -5 -13 -6 -27 -3 -30
3 -3 0 -13 -8 -23 -12 -15 -12 -16 1 -8 13 8 13 7 1 -8 -12 -15 -11 -17 5 -17
17 0 17 -1 -2 -16 -10 -8 -12 -12 -4 -8 13 7 13 6 1 -10 -9 -10 -11 -20 -5
-24 13 -10 14 -86 1 -94 -7 -4 -7 -11 2 -22 7 -9 11 -25 8 -36 -3 -11 0 -20 6
-20 6 0 7 -3 4 -6 -4 -4 -14 -1 -23 7 -16 13 -17 12 -12 -8 7 -27 2 -29 -18
-8 -9 8 -12 15 -8 15 4 0 -1 6 -12 14 -14 11 -21 11 -27 3 -6 -8 -7 -6 -4 5 7
19 -54 110 -80 119 -10 4 -23 2 -29 -3 -9 -6 -12 5 -11 43 0 33 -5 54 -14 60
-11 7 -11 9 3 9 12 0 15 5 11 17 -4 11 -3 14 5 9 7 -4 12 -1 12 9 0 12 5 15
16 11 14 -5 15 -4 5 7 -9 11 -7 17 6 28 9 8 14 9 10 2 -4 -6 -3 -14 2 -17 5
-3 11 5 13 19 3 13 2 22 -2 20 -5 -3 -10 1 -13 9 -4 10 0 12 14 9 11 -3 19 -2
18 3 -4 22 2 35 13 28 7 -4 8 -3 4 5 -4 6 -12 9 -17 6 -5 -4 -9 -1 -9 4 0 6 5
11 11 11 6 0 8 7 5 15 -3 9 1 18 10 22 8 3 13 12 10 19 -3 8 -1 14 4 14 6 0 9
3 8 8 -1 4 7 26 17 50 12 31 22 41 33 37 12 -4 13 -3 2 10 -10 12 -9 16 4 21
9 3 13 10 10 15 -8 13 10 11 25 -3 10 -11 12 -10 9 2 -2 8 3 14 10 15 6 0 12
3 12 8 0 4 0 10 0 14 0 3 -9 -2 -20 -12 -11 -10 -21 -15 -21 -12 -1 4 -2 10
-3 15 -1 4 -4 12 -8 18 -5 8 4 10 28 8 33 -2 34 -1 17 12 -13 11 -14 17 -5 20
18 8 15 27 -3 20 -12 -4 -13 -2 -5 13 5 11 14 21 19 23 5 1 0 14 -11 28 -13
16 -19 18 -15 8 4 -12 1 -18 -8 -18 -7 0 -15 10 -17 23 -2 14 -11 23 -25 25
-13 2 -23 8 -23 14 0 6 -3 9 -6 6 -3 -3 -20 9 -38 28 -18 19 -36 34 -40 34 -5
0 -21 9 -37 21 -16 11 -34 17 -41 13 -10 -6 -10 -4 0 8 11 14 9 16 -15 17 -54
1 -63 2 -68 12 -8 12 -65 -21 -65 -38 0 -7 -4 -13 -9 -13 -18 0 -72 -53 -67
-66 3 -7 0 -16 -6 -20 -7 -4 -8 -3 -4 4 4 7 2 12 -3 12 -6 0 -11 -7 -11 -15 0
-8 -5 -15 -11 -15 -6 0 -9 -7 -5 -15 3 -8 2 -14 -2 -14 -21 3 -31 -3 -26 -16
4 -9 -2 -18 -17 -24 -13 -5 -18 -10 -11 -10 7 -1 10 -6 7 -12 -4 -6 -9 -8 -12
-5 -9 8 -35 -23 -28 -34 3 -5 -1 -10 -9 -10 -15 0 -21 -12 -17 -33 1 -5 -3 -6
-8 -2 -6 3 -15 -5 -22 -17 -6 -13 -19 -30 -28 -39 -30 -30 -76 -93 -74 -101 2
-4 -2 -8 -8 -8 -5 0 -7 -5 -3 -12 4 -6 3 -8 -4 -4 -6 3 -14 1 -17 -5 -4 -5
-13 -8 -21 -5 -9 3 -11 0 -7 -12 6 -15 4 -15 -14 1 -16 14 -23 15 -29 6 -5 -8
-3 -10 6 -4 9 5 11 4 6 -3 -10 -17 -26 -15 -26 4 0 8 -5 12 -10 9 -6 -4 -7
-12 -3 -18 5 -8 2 -8 -9 0 -8 7 -18 10 -21 6 -4 -3 -7 -2 -7 4 0 5 -10 9 -23
8 -12 -1 -28 3 -36 8 -18 15 -43 18 -57 6 -8 -7 -14 -6 -19 1 -5 8 -13 6 -25
-5 -10 -9 -21 -12 -24 -7 -3 6 -22 6 -48 1 -24 -5 -66 -11 -95 -14 -62 -6
-119 -13 -153 -20 -73 -14 -126 -29 -137 -38 -7 -5 -13 -6 -13 -2 0 4 -7 1
-17 -6 -9 -8 -18 -13 -20 -11 -9 6 -33 1 -29 -7 4 -5 -2 -8 -11 -6 -10 1 -22
-1 -28 -4 -24 -17 -66 -31 -60 -20 4 6 -3 5 -15 -3 -19 -12 -21 -19 -16 -68
16 -160 24 -252 25 -298 1 -28 3 -31 19 -22 9 5 38 13 63 18 38 7 48 6 58 -7
11 -14 11 -14 6 3 -4 13 -1 17 9 13 8 -3 17 -1 20 6 3 9 5 9 5 0 1 -7 6 -13
12 -13 6 0 9 6 6 13 -3 9 6 11 36 8 36 -3 39 -1 33 15 -6 15 -5 16 5 7 9 -9
17 -9 32 -2 11 6 17 7 14 2 -3 -5 3 -9 14 -8 11 1 25 8 29 16 13 20 80 21 81
0 0 -10 2 -12 6 -3 2 6 12 12 21 13 14 0 13 2 -3 9 l-20 9 20 0 c11 0 26 -3
33 -8 10 -6 9 -10 -7 -14 -12 -3 -21 -10 -21 -17 0 -6 5 -8 12 -4 7 4 8 3 4
-5 -4 -6 -12 -9 -17 -6 -5 4 -9 -2 -9 -12 0 -15 -2 -16 -10 -3 -8 13 -11 12
-24 -5 -8 -11 -12 -24 -9 -29 4 -5 1 -6 -6 -2 -6 4 -14 0 -18 -11 -8 -22 -20
-34 -56 -57 -15 -10 -27 -25 -27 -33 0 -8 -4 -12 -9 -9 -11 7 -53 -39 -44 -49
5 -4 2 -5 -5 -1 -13 7 -45 -17 -37 -28 3 -3 2 -4 -1 -1 -9 6 -44 -14 -44 -26
0 -6 5 -7 12 -3 7 4 8 3 4 -4 -5 -9 -13 -9 -29 0 -19 9 -20 9 -11 -3 10 -11 6
-20 -17 -40 -16 -15 -29 -25 -29 -22 0 2 -14 -4 -30 -14 -17 -9 -30 -21 -30
-26 0 -4 5 -5 12 -1 7 4 8 3 4 -4 -4 -6 -14 -8 -23 -5 -13 5 -15 2 -10 -11 5
-11 3 -15 -5 -10 -7 5 -9 -1 -6 -20 3 -15 1 -26 -5 -26 -6 0 2 -14 19 -32 16
-17 23 -28 16 -24 -17 10 -15 -10 4 -39 9 -13 13 -29 9 -35 -3 -5 -2 -10 4
-10 11 0 26 -38 23 -57 -2 -7 2 -13 8 -13 6 0 9 4 5 9 -3 5 0 13 6 17 7 4 10
3 7 -2 -9 -14 11 -56 22 -49 5 3 10 1 10 -6 0 -7 3 -9 6 -6 4 3 16 2 27 -4 13
-7 17 -7 13 -1 -3 6 -2 13 4 17 5 3 10 0 10 -7 0 -7 11 -2 25 12 37 38 52 49
59 43 3 -3 8 1 12 10 3 9 12 13 22 10 11 -5 14 -2 9 10 -4 12 -1 17 10 17 9 0
14 3 11 6 -8 8 147 144 164 144 11 0 10 -2 0 -9 -8 -4 -13 -11 -12 -15 1 -4
-6 -18 -16 -31 -9 -12 -15 -25 -13 -28 2 -4 -5 -13 -16 -21 -14 -10 -15 -15
-6 -16 8 0 1 -12 -17 -30 -21 -20 -29 -35 -25 -46 4 -12 3 -15 -5 -10 -8 5
-12 -1 -12 -18 0 -14 -5 -28 -10 -31 -6 -4 -8 -11 -5 -16 4 -5 -4 -19 -17 -32
-13 -13 -24 -34 -25 -46 -2 -26 21 -56 36 -46 5 3 13 0 17 -6 5 -8 3 -9 -6 -4
-9 6 -11 4 -5 -4 4 -7 16 -11 26 -8 11 3 16 1 13 -5 -4 -5 4 -9 17 -7 34 3 59
-7 191 -80 32 -17 59 -27 63 -21 3 5 12 7 19 4 13 -5 56 44 60 69 1 7 7 22 14
34 8 15 9 24 1 28 -7 5 -4 14 7 26 10 11 19 26 20 34 7 45 51 105 51 69 0 -8
-4 -14 -9 -14 -13 0 -9 -40 5 -40 7 -1 5 -6 -5 -14 -18 -14 -25 -32 -9 -21 5
3 12 1 15 -4 4 -5 2 -12 -3 -15 -5 -4 -8 -17 -7 -30 2 -18 -1 -23 -13 -19 -15
4 -15 3 0 -9 9 -7 14 -19 11 -27 -3 -9 0 -11 9 -6 8 5 6 0 -4 -12 -20 -23 -22
-40 -4 -46 8 -3 6 -11 -8 -28 -19 -22 -19 -23 -1 -9 18 13 19 13 14 -1 -3 -8
1 -26 8 -40 l15 -24 -5 25 c-3 14 -3 19 0 12 3 -6 10 -10 15 -7 5 4 6 -1 2
-11 -5 -14 -3 -15 18 -4 18 10 24 10 27 1 3 -8 9 -6 18 6 13 17 14 17 8 -1 -6
-16 -4 -17 14 -7 17 9 123 22 189 24 27 1 53 44 58 93 2 27 5 49 5 49 2 0 10
58 14 100 3 22 5 40 6 40 2 0 4 13 14 75 3 19 10 57 17 84 l12 49 16 -27 c9
-14 21 -24 28 -22 7 3 18 -5 23 -17 11 -21 11 -21 -4 -3 -9 11 -16 15 -16 8 0
-11 38 -42 53 -42 4 0 5 6 1 13 -5 8 -2 8 9 -2 18 -15 23 -26 7 -16 -5 3 -10
-1 -10 -10 0 -11 5 -15 14 -12 11 4 13 1 9 -11 -6 -15 -5 -16 12 -2 10 8 16 9
11 3 -4 -8 6 -27 25 -48 20 -22 35 -31 39 -24 5 7 9 5 13 -6 4 -9 3 -13 -3
-10 -6 3 -10 1 -10 -4 0 -6 6 -11 14 -11 7 0 17 -10 21 -22 3 -14 8 -18 11
-11 7 15 34 -6 28 -22 -6 -17 24 -48 41 -42 10 4 15 0 15 -12 0 -14 5 -18 21
-14 15 4 22 0 26 -16 3 -11 9 -19 13 -16 4 3 11 -3 14 -12 6 -15 8 -15 16 -3
8 12 10 10 10 -7 0 -13 3 -22 8 -22 21 4 32 -2 26 -13 -5 -8 -2 -9 10 -5 14 6
17 3 12 -9 -4 -12 -2 -15 9 -10 9 3 15 0 15 -8 0 -7 12 -19 27 -27 16 -8 36
-22 47 -31 10 -9 32 -24 50 -32 17 -9 27 -16 21 -16 -5 0 2 -8 18 -18 15 -10
24 -22 20 -25 -3 -4 1 -7 10 -7 8 0 25 -15 37 -32 18 -27 18 -29 2 -11 -11 12
-22 19 -25 16 -7 -6 39 -46 47 -41 3 2 12 -6 21 -17 9 -11 13 -13 9 -5 -4 8 6
4 22 -10 16 -14 30 -28 32 -32 2 -5 8 -8 13 -8 5 0 17 -7 26 -15 10 -8 21 -15
26 -15 4 0 18 -10 32 -22 13 -13 30 -28 37 -33 7 -6 58 -46 113 -91 55 -44
123 -97 152 -119 29 -21 55 -45 58 -52 2 -8 9 -11 15 -8 5 3 10 0 10 -8 0 -20
46 -61 54 -48 8 12 43 -6 51 -27 3 -8 0 -10 -7 -6 -7 4 -8 3 -4 -4 4 -7 14
-12 22 -12 16 0 44 -23 44 -36 0 -4 -8 0 -18 9 -16 15 -19 15 -19 2 0 -8 3
-13 6 -10 2 3 11 -7 18 -22 7 -16 11 -20 9 -11 -3 9 2 22 9 28 8 7 12 17 8 23
-3 6 -1 7 5 3 9 -5 9 -13 1 -27 -10 -19 -9 -20 13 -8 22 12 22 11 8 -6 -9 -11
-10 -16 -2 -11 7 4 19 0 28 -8 9 -9 20 -14 25 -11 5 4 9 1 9 -4 0 -6 -4 -11
-10 -11 -5 0 -10 -5 -10 -12 0 -6 9 -3 20 7 17 15 20 16 20 3 0 -9 14 -21 30
-28 35 -15 36 -17 13 -44 -18 -20 -18 -20 9 -3 24 15 26 15 24 0 -2 -9 -8 -19
-14 -21 -7 -2 -12 -8 -12 -13 0 -6 4 -8 9 -5 9 6 6 -122 -3 -132 -3 -3 0 -12
7 -20 10 -13 9 -15 -6 -9 -14 5 -16 3 -9 -11 5 -9 8 -33 6 -52 -7 -65 -16
-205 -15 -233 1 -19 -2 -26 -10 -22 -8 6 -8 2 0 -14 10 -18 9 -20 -6 -15 -16
5 -16 4 1 -10 11 -9 17 -18 15 -20 -3 -3 -28 13 -57 34 -29 22 -59 40 -68 40
-8 0 -12 4 -9 10 6 9 -8 14 -27 11 -5 0 -8 4 -8 10 0 6 -7 9 -15 5 -8 -3 -14
0 -12 7 1 7 -4 11 -12 9 -7 -1 -19 2 -25 8 -7 5 -17 6 -21 2 -5 -4 -5 -1 -1 6
5 7 13 10 20 5 7 -4 3 0 -8 10 -12 12 -22 14 -24 8 -2 -6 -8 -11 -13 -11 -4 0
-6 6 -3 14 3 7 -2 16 -11 20 -10 3 -14 2 -9 -5 3 -6 -3 -5 -15 3 -12 7 -21 17
-22 23 0 5 -4 1 -9 -10 -8 -18 -9 -18 -9 -2 -1 10 -5 15 -11 12 -5 -3 -10 -2
-10 3 0 6 -7 13 -16 16 -10 4 -13 2 -8 -7 6 -9 5 -9 -7 0 -19 15 -72 36 -65
25 2 -4 -4 -8 -14 -8 -11 0 -17 2 -15 5 8 8 -48 32 -62 26 -8 -2 -11 0 -8 5 6
9 -8 14 -27 11 -5 0 -8 4 -8 9 0 5 -3 9 -7 9 -5 -1 -11 0 -15 1 -5 1 -11 3
-15 4 -5 1 -26 10 -48 21 -22 10 -44 19 -50 21 -5 1 -38 14 -73 27 -34 14 -62
22 -62 19 0 -4 -4 -1 -8 6 -5 7 -25 15 -46 17 -21 3 -47 10 -58 16 -15 8 -19
8 -14 0 10 -15 -5 -13 -28 4 -10 8 -23 12 -28 9 -4 -3 -11 2 -14 10 -5 12 -10
13 -25 5 -13 -6 -19 -6 -19 0 0 6 -7 8 -15 5 -11 -5 -13 -2 -9 10 3 9 2 16 -4
16 -6 0 -12 -5 -14 -10 -2 -6 -21 -13 -43 -17 -32 -5 -53 -20 -113 -81 -67
-69 -210 -267 -213 -295 -10 -90 -15 -226 -8 -221 4 2 9 -7 11 -21 3 -14 1
-25 -4 -25 -5 0 -6 -6 -1 -12 4 -7 9 -26 10 -43 4 -41 10 -80 13 -80 1 0 3
-12 4 -27 0 -15 9 -37 18 -48 10 -11 14 -20 9 -20 -5 0 -7 -9 -4 -20 3 -10 10
-18 15 -17 6 1 13 -4 16 -12 3 -9 0 -11 -9 -6 -8 4 5 -11 28 -33 23 -22 40
-42 37 -44 -2 -3 18 -29 46 -58 27 -29 55 -65 62 -81 7 -16 16 -29 20 -29 5 0
7 -6 5 -12 -1 -7 4 -12 11 -10 7 1 15 -11 18 -28 4 -16 10 -27 15 -24 5 3 12
-3 16 -13 4 -10 15 -25 25 -34 10 -9 18 -19 18 -23 0 -14 48 -55 56 -48 5 4 2
-1 -5 -11 -8 -10 -17 -14 -20 -9 -6 9 -111 11 -111 2 0 -3 -19 -6 -41 -6 -23
-1 -45 -8 -50 -15 -7 -11 -9 -11 -9 -1 0 9 -5 10 -18 3 -10 -5 -33 -12 -52
-14 -19 -3 -37 -6 -40 -7 -3 -1 -9 -3 -15 -4 -23 -3 -91 -29 -104 -40 -11 -8
-13 -8 -8 1 4 6 -13 1 -37 -13 -24 -14 -64 -35 -88 -48 -33 -18 -42 -28 -41
-45 2 -13 -1 -20 -7 -16 -13 8 -8 -18 5 -27 6 -4 15 -8 20 -8 6 0 3 5 -5 10
-13 8 -13 11 2 25 10 8 14 10 9 4 -10 -12 8 -47 37 -78 7 -7 11 -19 8 -27 -3
-7 -2 -14 2 -16 12 -5 52 -67 52 -80 1 -19 66 -89 75 -80 4 4 5 -5 3 -21 -4
-18 -1 -27 8 -27 8 0 14 -4 14 -9 0 -13 76 -91 89 -91 7 0 9 -4 6 -10 -3 -5 2
-10 11 -10 10 0 15 -3 11 -6 -3 -3 6 -17 21 -31 15 -14 26 -29 24 -34 -1 -5 4
-9 11 -9 7 0 27 -15 43 -32 16 -18 45 -42 64 -52 19 -11 39 -26 43 -33 7 -12
11 -11 22 4 13 17 14 16 8 -6 -4 -16 -3 -22 5 -17 6 3 13 2 16 -3 3 -5 -8 -7
-25 -6 -16 1 -27 0 -24 -4 4 -3 12 -6 18 -6 7 0 17 -10 22 -23 6 -15 16 -21
28 -18 9 2 15 1 12 -4 -3 -4 10 -14 28 -21 17 -7 49 -27 71 -45 50 -42 100
-66 122 -57 12 4 15 3 10 -5 -14 -23 5 -12 41 23 20 19 33 35 28 35 -13 0 148
150 167 156 10 3 18 9 18 13 0 4 24 19 53 34 28 14 72 45 96 69 24 24 41 37
37 31 -9 -16 6 -17 21 -2 12 12 95 19 293 25 139 4 255 10 255 14 0 1 27 2 60
3 33 1 66 6 73 10 6 5 16 6 21 3 18 -12 34 26 32 77 -2 89 -12 182 -19 189 -4
3 -23 9 -42 13 -19 3 -48 8 -65 11 -16 3 -68 15 -115 26 -47 11 -92 21 -100
23 -8 2 -33 11 -54 20 -22 9 -71 18 -110 20 -80 4 -105 9 -136 25 -11 6 -25 8
-30 5 -5 -3 -7 0 -4 8 3 8 -2 17 -11 21 -9 3 -13 2 -10 -4 3 -6 4 -10 1 -10
-7 0 -80 121 -126 210 -69 136 -131 242 -167 287 -19 24 -31 48 -27 54 4 7 3
9 -3 6 -6 -4 -21 5 -33 18 -21 22 -20 30 2 26 4 0 5 6 2 14 -3 8 -11 13 -17
12 -7 -1 -11 4 -9 11 1 8 -1 11 -5 9 -5 -2 -17 4 -27 14 -12 11 -14 19 -7 19
7 0 9 5 5 12 -5 8 -2 9 10 5 9 -4 15 -3 11 2 -3 6 -14 9 -25 8 -10 -1 -16 -5
-14 -9 3 -4 1 -8 -3 -8 -9 0 -37 59 -34 72 0 5 -3 8 -7 8 -4 0 -8 15 -8 34 0
19 3 34 6 34 19 -2 30 4 27 14 -1 7 4 13 11 14 26 3 27 5 12 14 -13 8 -12 10
3 10 9 0 17 -4 17 -8 0 -4 9 -8 20 -9 12 -1 42 -17 68 -35 26 -18 59 -39 75
-47 15 -8 27 -21 27 -30 0 -12 2 -13 9 -3 6 10 16 5 41 -20 19 -18 28 -24 20
-14 -12 16 -9 15 17 -4 18 -13 33 -27 33 -32 0 -4 6 -5 13 -2 7 2 24 -5 38
-16 13 -12 34 -30 47 -41 12 -10 29 -19 37 -19 7 0 21 -10 29 -22 9 -12 16
-19 16 -15 0 4 21 -13 47 -38 25 -25 52 -44 60 -41 7 3 13 1 13 -4 0 -6 4 -9
9 -7 4 1 18 -9 30 -23 13 -14 20 -18 16 -10 -4 9 0 7 9 -4 8 -10 19 -15 25
-11 7 3 8 0 5 -9 -3 -9 -2 -16 3 -16 8 0 167 -111 199 -139 6 -5 40 -24 75
-41 35 -18 117 -65 184 -105 148 -89 181 -106 189 -98 3 4 6 1 6 -6 0 -8 8
-11 20 -8 11 3 18 1 14 -4 -5 -8 9 -13 29 -10 4 0 7 -4 7 -11 0 -6 3 -8 6 -5
4 3 15 2 25 -3 12 -7 19 -6 22 3 4 8 6 6 6 -4 1 -15 24 -20 84 -20 9 0 15 -4
12 -9 -6 -10 23 -22 36 -14 5 3 9 1 9 -4 0 -8 64 -24 110 -26 8 -1 21 -5 28
-9 6 -5 12 -6 12 -3 0 3 12 1 28 -5 42 -17 184 -22 194 -7 6 10 8 9 8 -3 0
-25 100 -17 190 14 41 14 148 49 237 77 88 28 167 57 173 65 7 8 16 15 21 15
5 0 28 13 51 29 24 16 46 27 49 25 4 -2 9 3 13 11 3 8 10 15 15 15 6 0 68 39
138 87 116 78 160 114 271 223 20 19 33 29 28 23 -14 -24 3 -13 51 33 28 27
40 43 28 39 -11 -3 -15 -2 -10 2 6 5 24 19 40 33 l30 25 -24 -28 c-35 -39 -13
-33 32 9 22 21 34 40 30 47 -4 7 1 6 10 -2 9 -7 17 -9 17 -4 0 6 20 26 44 45
33 25 42 38 35 49 -8 12 -13 6 -11 -13 1 -3 -5 -9 -14 -12 -10 -4 -13 -2 -8 7
18 32 27 37 40 26 10 -8 19 -7 34 4 12 8 17 18 12 21 -6 3 -13 1 -15 -4 -3 -6
-4 -5 -3 2 2 7 7 13 12 13 18 0 56 34 49 44 -3 6 -2 11 4 11 5 0 11 -6 14 -12
3 -10 8 -10 21 1 9 8 14 21 11 29 -4 11 0 13 16 9 14 -4 19 -2 16 8 -4 9 1 11
14 8 10 -3 19 0 19 6 0 6 7 11 16 11 10 0 14 6 10 15 -3 8 0 15 6 15 6 0 17 8
25 18 8 9 12 11 8 5 -3 -7 -2 -13 4 -13 18 0 41 12 41 22 0 15 32 37 53 38 10
0 15 4 12 10 -3 6 1 7 9 4 14 -5 21 -24 17 -46 0 -5 6 -8 14 -8 16 0 20 -15 7
-24 -12 -7 -2 -76 12 -76 6 0 4 -5 -4 -10 -12 -8 -11 -10 8 -10 20 0 22 -2 11
-22 -7 -13 -19 -28 -27 -34 -8 -6 -12 -16 -8 -22 4 -7 2 -12 -3 -12 -6 0 -11
-5 -11 -11 0 -5 5 -7 10 -4 6 3 10 1 10 -4 0 -6 -7 -11 -15 -11 -8 0 -14 -3
-13 -7 0 -5 -2 -15 -5 -23 -3 -8 -7 -24 -9 -35 -2 -11 -14 -25 -28 -32 -14 -7
-20 -13 -13 -13 8 0 10 -7 6 -17 -9 -25 -29 -43 -37 -35 -4 3 -4 -2 0 -12 5
-13 4 -17 -3 -13 -7 5 -10 -2 -9 -17 2 -18 -1 -23 -12 -18 -10 3 -13 1 -8 -6
4 -7 1 -15 -8 -18 -8 -3 -18 -19 -21 -35 -4 -16 -11 -29 -17 -29 -6 0 -7 -7
-4 -16 3 -8 2 -13 -3 -10 -5 3 -14 -1 -21 -9 -7 -8 -9 -15 -4 -15 4 0 -2 -9
-14 -20 -12 -12 -22 -25 -22 -31 0 -6 -4 -7 -10 -4 -6 4 -10 -5 -10 -19 0 -14
-5 -26 -11 -26 -5 0 -7 -6 -3 -13 5 -7 0 -6 -11 3 -10 8 -16 10 -12 4 4 -7 0
-14 -8 -18 -8 -3 -15 -13 -15 -22 0 -13 -3 -14 -14 -5 -11 9 -16 9 -22 0 -4
-8 -3 -9 4 -5 7 4 12 1 12 -8 0 -9 -16 -18 -42 -24 -24 -5 -52 -13 -63 -17
-16 -5 -17 -5 -5 4 13 9 13 11 -2 11 -10 0 -18 -4 -18 -10 0 -5 -3 -9 -7 -9
-21 3 -26 -2 -13 -12 12 -8 10 -9 -8 -4 -16 5 -30 1 -44 -12 -12 -10 -18 -12
-14 -6 5 10 1 11 -16 4 -13 -4 -29 -6 -37 -3 -8 3 -11 0 -7 -6 3 -6 1 -14 -5
-18 -7 -4 -9 -3 -5 4 3 6 2 13 -4 17 -9 6 -15 -8 -11 -29 1 -5 -5 -3 -14 4
-15 12 -35 15 -75 11 -5 -1 -7 -16 -5 -33 2 -18 7 -58 10 -88 4 -30 8 -71 11
-90 2 -19 6 -66 9 -105 7 -94 13 -115 30 -115 8 0 15 -4 15 -8 0 -4 8 -8 18
-9 9 -1 22 -2 27 -3 28 -6 56 1 49 12 -5 8 -2 9 9 5 10 -3 17 -3 17 2 0 4 7 8
15 8 8 0 15 -5 15 -10 0 -5 7 -4 15 3 8 7 15 9 15 4 0 -5 37 -8 82 -8 46 1 88
-1 93 -4 6 -4 19 -8 29 -9 11 -2 25 -8 31 -13 6 -5 21 -7 33 -3 12 3 22 1 22
-5 0 -18 32 -43 46 -38 8 3 14 0 14 -8 0 -11 58 -66 93 -88 7 -5 8 -8 2 -8 -6
0 -17 6 -25 12 -12 11 -12 10 -1 -5 8 -9 29 -25 47 -33 19 -9 34 -21 34 -28 0
-6 10 -16 23 -22 12 -6 41 -21 65 -33 23 -13 53 -24 67 -25 14 0 25 -5 25 -9
0 -5 4 -5 10 -2 6 3 10 1 10 -6 0 -7 3 -9 7 -6 3 4 13 1 21 -6 13 -10 14 -9 7
3 -5 9 1 7 14 -5 13 -11 25 -19 27 -17 2 1 5 2 7 1 1 -1 16 -2 32 -4 17 -1 31
-4 33 -5 1 -1 5 -3 10 -4 4 -1 12 -4 17 -6 6 -3 21 -5 35 -5 14 0 27 -3 30 -7
3 -4 17 -9 30 -12 43 -9 174 -48 195 -58 11 -5 30 -10 43 -11 12 0 22 -5 22
-10 0 -5 6 -7 14 -4 8 3 20 -1 27 -9 6 -8 14 -12 17 -10 2 3 17 -1 33 -10 19
-9 29 -11 29 -4 0 6 7 4 16 -4 8 -9 18 -16 22 -17 4 0 16 -2 27 -5 22 -4 65
14 65 28 0 5 10 30 21 56 12 25 22 56 23 68 1 14 6 20 16 16 8 -3 12 -2 8 3
-4 4 -2 17 4 29 7 11 11 24 10 29 -1 4 2 7 8 7 5 0 8 13 6 30 -2 16 1 27 5 24
5 -3 10 2 10 10 2 17 5 34 8 39 5 5 18 196 22 302 1 39 6 80 10 92 6 15 5 23
-3 23 -6 0 -3 9 7 20 17 18 17 20 2 14 -13 -5 -16 -2 -11 10 4 10 1 16 -9 16
-23 0 -40 27 -41 65 0 19 -3 35 -6 35 -10 0 -5 75 5 82 6 5 5 8 -4 8 -7 0 -11
6 -7 15 3 8 0 15 -7 16 -7 0 -3 4 8 9 19 8 19 9 -2 11 -13 1 -29 2 -35 3 -7 1
-21 -2 -31 -6 -12 -6 -17 -5 -15 4 2 10 -19 14 -82 16 -165 5 -296 5 -340 -3
-25 -4 -52 -7 -60 -7 -8 -1 -21 -5 -27 -11 -9 -6 -13 -6 -13 1 0 7 -13 9 -32
6 -18 -2 -50 -7 -71 -9 -21 -2 -42 -7 -47 -10 -5 -3 -11 -1 -15 5 -3 6 1 13 9
16 9 3 16 11 16 17 0 18 44 77 58 77 7 0 10 5 7 10 -3 6 -1 10 5 10 6 0 9 4 6
9 -3 5 4 12 17 16 14 4 17 8 9 12 -10 4 -10 8 -1 19 16 20 29 17 23 -3 -5 -15
-4 -15 4 -3 7 9 8 18 1 26 -7 8 -6 15 2 20 7 4 9 3 5 -4 -3 -6 1 -9 10 -8 9 1
21 11 26 22 9 18 8 18 -5 1 -12 -15 -15 -15 -20 -3 -4 9 -2 18 4 21 5 4 6 11
3 17 -4 7 -2 8 4 4 11 -6 16 6 13 27 0 4 3 7 7 7 13 0 53 103 66 170 3 14 12
49 20 78 8 28 12 52 9 52 -3 0 -1 6 5 13 6 7 8 18 4 24 -4 7 -7 28 -6 47 1 21
-3 36 -10 36 -8 0 -8 2 0 8 14 9 14 42 0 42 -6 0 -5 4 2 9 18 11 12 87 -6 83
-8 -1 -11 2 -7 8 3 6 10 8 15 5 5 -3 8 18 5 47 -2 29 -4 60 -4 68 -1 13 -2 13
-11 0 -7 -11 -8 -7 -6 15 3 32 -11 86 -26 96 -6 3 -9 9 -9 13 3 24 -2 39 -19
56 -11 11 -15 20 -9 20 5 0 7 5 4 10 -4 6 -10 8 -15 5 -4 -3 -18 7 -30 22 -14
19 -23 24 -27 15 -4 -10 -8 -10 -19 -1 -8 6 -14 17 -14 23 0 14 -36 46 -44 39
-3 -3 -8 2 -12 11 -3 9 -12 16 -20 16 -8 0 -14 5 -14 11 0 5 -5 7 -10 4 -6 -3
-13 0 -16 8 -3 9 -16 18 -30 21 -13 4 -24 11 -24 16 0 5 -9 7 -20 5 -11 -2
-19 1 -17 8 1 6 -4 12 -10 13 -7 1 -16 3 -20 4 -5 1 -11 2 -15 1 -5 0 -8 4 -8
10 0 6 -6 9 -14 6 -8 -3 -16 2 -19 14 -3 10 -1 19 3 19 5 0 19 21 32 48 13 26
27 50 33 54 6 5 4 8 -5 9 -9 0 -6 5 8 11 12 6 21 16 19 22 -2 6 4 22 14 35 11
13 19 30 19 37 0 8 5 14 10 14 6 0 10 6 10 14 0 7 8 24 19 37 10 13 16 30 14
37 -3 6 -1 12 5 12 8 0 36 50 32 59 -1 2 5 8 14 13 9 5 14 13 11 19 -4 5 1 12
9 15 9 3 13 10 10 15 -3 5 2 6 10 3 9 -3 16 -12 16 -20 0 -8 8 -14 19 -14 11
0 21 -9 24 -21 3 -12 10 -18 17 -14 6 3 36 -17 67 -47 31 -29 64 -60 73 -69
27 -26 108 -79 119 -79 6 0 11 -4 11 -9 0 -5 16 -15 35 -22 19 -7 35 -17 35
-21 0 -4 4 -7 8 -5 8 2 102 -36 132 -54 8 -5 22 -12 30 -15 8 -3 31 -12 50
-20 l35 -15 -25 20 c-22 18 -23 21 -6 21 10 0 25 -8 33 -17 8 -10 12 -12 8 -6
-4 9 2 11 25 6 27 -5 31 -3 28 12 -2 11 4 19 14 20 9 2 27 10 39 18 12 9 29
13 38 10 14 -4 14 -3 1 6 -15 10 -14 12 13 15 6 1 11 8 9 16 -3 12 -1 12 9 3
15 -15 39 7 42 36 1 11 3 18 6 15 2 -2 15 6 28 18 13 12 23 16 23 10 0 -7 -4
-12 -10 -12 -5 0 -10 -5 -10 -10 0 -6 8 -5 20 2 11 7 18 18 16 24 -2 6 6 16
19 22 34 16 141 109 235 205 20 20 42 37 48 37 7 0 11 6 9 13 -1 6 4 11 12 9
12 -3 12 -1 0 14 -9 12 -10 15 -1 10 9 -5 21 12 43 61 17 37 44 96 60 130 32
68 51 116 49 122 -1 2 4 8 12 13 10 7 9 12 -7 24 l-20 16 20 -6 c16 -5 20 -1
21 19 2 20 -1 23 -11 15 -10 -8 -15 -8 -21 1 -4 8 -3 9 4 5 7 -4 12 -1 12 9 0
9 5 13 10 10 6 -3 10 1 10 10 0 10 -5 14 -12 10 -7 -4 -5 0 5 8 20 16 23 32 5
21 -8 -5 -7 0 2 11 13 17 13 18 0 11 -9 -5 -9 -2 2 7 16 13 16 15 0 30 -11 12
-12 17 -4 17 7 0 10 5 7 10 -4 6 -11 7 -17 4 -7 -4 -8 -2 -4 5 4 6 12 8 18 5
7 -5 9 -2 5 8 -3 9 0 21 6 28 9 9 9 11 1 7 -7 -4 -14 0 -17 7 -4 9 1 17 11 19
16 4 15 5 0 6 -10 0 -18 6 -18 12 0 6 6 9 13 6 9 -3 12 4 11 22 -2 36 -14 62
-27 54 -6 -4 -7 -1 -3 6 5 7 15 10 23 6 13 -4 14 -3 3 10 -10 12 -10 15 0 15
9 0 8 6 -4 19 -13 14 -14 21 -5 27 8 5 10 3 4 -6 -5 -8 -4 -11 3 -6 11 6 10
16 -4 65 -5 17 -4 22 4 17 7 -4 12 -2 12 3 0 6 -5 11 -11 11 -6 0 -8 9 -4 21
4 12 3 19 -1 16 -5 -3 -9 16 -9 41 1 55 -4 70 -16 51 -6 -10 -9 -10 -9 -2 0 6
5 15 11 18 7 5 4 14 -7 27 -16 16 -16 21 -4 28 14 9 13 11 -9 14 -5 0 -13 5
-18 10 -5 5 -3 6 5 2 15 -9 16 13 0 51 -14 34 -15 40 -23 78 -9 48 -14 57 -27
49 -10 -6 -10 -4 0 8 9 11 10 22 4 35 -11 19 -35 75 -37 83 -7 30 -18 49 -26
45 -5 -3 -6 1 -3 9 6 15 -26 95 -50 125 -5 7 -11 20 -13 29 -1 9 -6 18 -11 20
-6 2 -8 12 -5 22 3 13 0 20 -8 20 -8 0 -4 9 11 21 14 11 19 18 13 14 -42 -21
13 47 71 89 14 10 23 23 19 29 -3 5 -1 7 4 4 6 -4 19 3 29 16 19 21 19 21 -1
7 -17 -12 -18 -12 -7 0 7 8 18 15 25 15 7 0 13 4 14 8 3 9 30 37 37 37 2 0 28
22 57 49 l53 50 -27 12 c-14 6 -24 15 -22 20 3 4 1 10 -5 14 -6 4 -8 11 -5 16
3 5 -1 6 -9 3 -9 -3 -16 -2 -16 3 0 16 -36 53 -44 46 -4 -4 -4 1 0 12 6 15 4
17 -10 12 -14 -6 -17 -3 -12 8 4 12 0 15 -17 13 -12 -2 -23 1 -24 6 -1 5 -7
13 -15 17 -7 5 -8 9 -3 9 6 0 17 -5 25 -10 12 -8 12 -10 1 -10 -8 0 -12 -3 -8
-6 3 -3 11 -3 17 1 16 10 -25 46 -43 39 -8 -3 -18 -1 -22 5 -3 7 0 8 10 5 11
-5 14 -2 9 12 -5 16 -4 16 5 4 8 -12 11 -12 11 -1 0 11 3 11 15 1 9 -7 18 -10
22 -7 3 4 11 1 17 -7 16 -19 99 -38 107 -24 4 6 12 45 20 87 16 99 14 89 48
219 16 61 26 113 22 113 -3 1 -9 1 -13 0 -5 0 -8 3 -8 8 0 5 -10 7 -22 3 -21
-5 -22 -4 -8 13 14 17 14 18 -7 6 -20 -10 -23 -9 -23 5 0 14 -3 14 -16 4 -13
-11 -16 -10 -21 8 -3 12 -9 19 -14 16 -5 -3 -7 -10 -4 -15 3 -5 -1 -6 -10 -3
-10 4 -14 13 -10 28 5 15 4 17 -3 7 -11 -15 -62 -8 -62 10 0 6 7 6 20 -1 11
-6 20 -7 20 -1 0 13 -27 22 -45 15 -8 -4 -15 -2 -15 4 0 5 -11 7 -25 4 -15 -3
-25 0 -25 8 0 6 -6 10 -12 8 -7 -3 -23 1 -35 7 -13 7 -34 11 -48 9 -16 -1 -25
3 -25 12 0 8 -4 14 -10 14 -5 0 -10 -5 -10 -12 0 -6 -7 -3 -15 8 -13 16 -16
17 -25 4 -8 -13 -10 -13 -10 1 0 9 -6 16 -12 16 -7 1 -33 4 -58 8 -25 3 -53 7
-62 8 -10 1 -18 4 -18 8 0 4 -8 6 -17 4 -10 -1 -24 3 -32 9 -12 9 -13 8 -7 -2
7 -11 4 -12 -13 -3 -12 7 -27 9 -33 5 -6 -4 -8 -3 -5 3 4 6 0 14 -9 17 -8 3
-12 2 -9 -4 3 -6 1 -10 -4 -10 -6 0 -11 5 -11 11 0 8 -6 7 -17 -2 -15 -12 -16
-12 -8 1 7 12 6 13 -6 3 -12 -10 -17 -8 -27 8 -9 14 -9 19 0 19 6 0 23 10 36
23 14 12 22 17 19 11 -10 -17 63 22 80 43 9 11 12 12 8 3 -4 -10 -2 -9 8 3 8
9 21 17 30 17 9 0 19 5 22 10 5 8 11 7 20 0 15 -13 39 -4 30 10 -3 5 4 14 15
20 16 9 20 8 20 -5 0 -13 4 -14 20 -5 11 6 20 16 20 22 0 6 -7 5 -17 -3 -16
-13 -17 -12 -4 4 10 13 17 15 27 6 11 -9 15 -7 20 5 3 9 11 15 18 14 6 -1 36
13 66 32 30 19 58 35 63 36 4 1 12 2 18 3 8 1 8 5 0 15 -10 12 -9 13 7 9 17
-4 19 0 17 26 -2 22 2 32 16 36 22 7 25 22 4 22 -8 0 -12 -4 -9 -9 3 -4 -2 -5
-11 -2 -11 5 -13 10 -5 19 8 9 8 14 0 17 -6 2 -12 10 -13 18 -2 8 -6 20 -9 26
-4 6 -9 24 -12 40 -3 16 -12 34 -21 40 -8 6 -12 14 -8 17 3 4 1 7 -6 7 -7 0
-9 5 -5 12 4 7 3 8 -5 4 -6 -4 -14 0 -17 8 -3 9 -9 14 -13 11 -8 -4 -95 -18
-123 -19 -10 0 -18 -3 -18 -6 0 -3 -15 -6 -32 -7 -56 -2 -142 -15 -159 -24 -9
-4 -28 -6 -42 -4 -14 3 -29 0 -33 -6 -5 -8 -2 -9 7 -4 12 7 12 5 1 -6 -11 -12
-14 -12 -22 1 -7 10 -10 11 -10 3 0 -7 -5 -13 -11 -13 -5 0 -7 6 -3 13 4 6 -1
5 -12 -5 -21 -18 -89 -39 -98 -30 -3 3 -6 -1 -6 -9 0 -11 -2 -11 -10 1 -7 12
-10 12 -10 1 0 -7 -6 -11 -15 -7 -8 3 -15 2 -15 -3 0 -7 -15 -11 -52 -12 -10
0 -18 -4 -18 -8 0 -4 -6 -8 -13 -8 -22 0 -117 -36 -117 -45 0 -4 -7 -5 -15 -2
-8 4 -21 2 -28 -4 -6 -6 -29 -13 -49 -17 -21 -4 -38 -11 -38 -16 0 -4 -8 -6
-18 -4 -10 2 -25 -1 -33 -6 -12 -7 -12 -9 0 -9 8 0 12 -2 9 -5 -9 -10 -38 7
-31 18 3 6 1 7 -6 3 -6 -4 -9 -11 -6 -16 3 -5 1 -11 -5 -15 -5 -3 -10 -1 -10
4 0 6 -5 11 -11 11 -5 0 -7 -4 -4 -10 3 -5 1 -10 -5 -10 -6 0 -8 -5 -5 -11 4
-6 1 -9 -6 -8 -8 2 -31 -5 -53 -14 -21 -9 -42 -17 -46 -17 -4 0 -29 -9 -55
-21 -44 -20 -76 -19 -45 1 10 7 11 10 3 10 -7 0 -13 5 -13 11 0 5 6 7 13 4 6
-4 5 0 -3 7 -18 17 -39 47 -46 71 -4 9 -9 17 -13 17 -3 0 -12 9 -19 21 -10 16
-10 19 -1 13 9 -5 10 -1 5 17 -10 35 -14 53 -15 66 -1 6 -10 9 -23 5 -19 -5
-20 -4 -7 10 7 9 17 14 22 11 4 -2 7 1 7 6 0 6 -7 11 -16 11 -21 0 -44 30 -37
47 3 7 9 11 13 8 5 -3 11 -1 14 4 9 15 -14 25 -27 12 -6 -6 -15 -11 -20 -11
-5 0 1 9 14 20 13 10 19 19 14 20 -6 0 -15 -4 -21 -10 -6 -6 -14 -3 -22 10 -7
12 -8 21 -2 25 6 4 9 1 8 -6 -2 -6 3 -14 10 -16 19 -7 14 21 -8 45 -12 12 -16
22 -10 22 5 0 10 5 10 11 0 5 -5 7 -12 3 -6 -4 -8 -3 -4 4 3 6 -1 15 -10 20
-15 8 -15 10 0 15 9 4 15 2 13 -5 -1 -6 3 -12 9 -15 7 -2 10 5 7 21 -3 14 -10
23 -15 20 -10 -7 -28 13 -28 31 0 6 4 4 9 -3 7 -11 9 -10 14 3 5 11 3 14 -5 9
-8 -5 -9 -2 -5 9 3 9 2 19 -3 22 -6 4 -10 15 -10 26 0 19 -19 22 -32 4 -4 -5
-11 -6 -15 -1 -4 5 -3 11 3 13 6 2 20 10 30 17 17 13 16 14 -10 9 -20 -4 -27
-2 -22 6 5 7 -1 11 -16 12 l-23 0 24 10 c16 6 28 6 36 -1 10 -8 15 -7 21 2 4
7 4 10 -1 6 -4 -4 -14 0 -22 8 -12 11 -18 12 -29 3 -11 -9 -18 -8 -33 5 -16
15 -19 15 -24 1 -8 -18 -28 -20 -24 -2 1 7 -6 11 -18 9 -34 -5 -47 -11 -41
-20 3 -5 -6 -7 -19 -4 -15 2 -25 0 -25 -8 0 -6 -10 -10 -22 -9 -13 1 -30 -1
-38 -4 -8 -4 -24 -8 -35 -10 -11 -1 -26 -7 -34 -11 -10 -6 -12 -5 -7 3 6 8 -3
7 -27 -3 -20 -8 -39 -11 -42 -8 -4 4 -4 -3 -1 -15 4 -13 3 -23 -2 -23 -5 0 -9
-7 -9 -15 0 -8 5 -15 11 -15 6 0 5 -4 -2 -9 -11 -7 -10 -9 3 -14 9 -4 14 -3
11 2 -3 5 0 11 7 14 9 3 11 -11 9 -57 -2 -43 0 -57 7 -46 8 12 10 11 8 -7 0
-12 -5 -19 -9 -17 -4 3 -8 -2 -8 -10 0 -9 6 -16 13 -17 6 0 3 -4 -8 -9 l-20
-9 20 0 c17 -1 17 -3 5 -11 -8 -5 -18 -10 -22 -10 -5 0 -19 29 -23 50 -1 3 -5
16 -9 29 -6 19 -10 21 -18 10 -6 -10 -8 -7 -6 11 2 14 -2 25 -9 25 -6 0 -15 4
-20 9 -5 5 -3 6 5 2 6 -4 12 -3 12 3 0 5 -9 13 -20 16 -18 6 -24 17 -21 37 0
4 -9 5 -20 3 -17 -4 -19 -2 -9 10 10 12 9 15 -3 15 -9 0 -21 8 -26 18 -6 9
-11 13 -11 7 0 -5 -4 -4 -9 4 -7 11 -13 12 -24 3 -11 -9 -14 -9 -14 3 0 8 5
12 11 9 6 -3 0 3 -13 13 -24 17 -75 38 -116 47 -53 12 -67 15 -112 22 -71 11
-233 11 -233 0 0 -6 -5 -5 -12 2 -14 14 -25 15 -30 2z m739 -112 c-3 -8 -6 -5
-6 6 -1 11 2 17 5 13 3 -3 4 -12 1 -19z m3 -22 c0 -3 -4 -8 -10 -11 -5 -3 -10
-1 -10 4 0 6 5 11 10 11 6 0 10 -2 10 -4z m410 -7 c0 -5 5 -7 10 -4 16 10 11
-1 -7 -16 -10 -8 -14 -9 -10 -2 4 7 0 16 -10 22 -17 10 -17 10 0 11 9 0 17 -5
17 -11z m-1433 -284 c0 -8 -4 -12 -9 -9 -5 3 -6 10 -3 15 9 13 12 11 12 -6z
m15 -36 c2 -2 1 -3 -1 -2 -2 2 -9 -2 -16 -7 -8 -7 -12 -5 -12 4 0 12 22 16 29
5z m1545 -65 c0 -18 0 -18 -21 5 -17 19 -17 19 1 15 11 -3 20 -12 20 -20z
m-1946 -27 c-10 -9 -11 -8 -5 6 3 10 9 15 12 12 3 -3 0 -11 -7 -18z m140 -30
c-6 -8 -9 -16 -6 -19 3 -2 -2 -5 -10 -5 -17 0 -17 0 -9 21 3 9 13 16 21 16 12
0 13 -3 4 -13z m1323 -2 c-4 -8 -8 -15 -10 -15 -2 0 -4 7 -4 15 0 8 4 15 10
15 5 0 7 -7 4 -15z m-4 -44 c0 -6 -7 -8 -15 -4 -9 3 -14 8 -11 11 3 2 0 14 -6
26 -10 20 -10 20 11 -1 11 -12 21 -27 21 -32z m-237 14 c-3 -9 -8 -14 -10 -11
-3 3 -2 9 2 15 9 16 15 13 8 -4z m222 -34 c12 -5 20 -18 21 -37 3 -37 7 -56
18 -73 6 -10 5 -12 -3 -7 -9 6 -10 0 -5 -20 4 -15 8 -39 8 -53 1 -15 7 -30 14
-34 6 -4 12 -17 12 -28 0 -13 -4 -18 -12 -13 -10 6 -10 4 0 -7 14 -15 17 -33
4 -25 -5 3 -9 -1 -9 -9 0 -8 7 -15 14 -15 8 0 12 -4 9 -9 -4 -5 0 -12 6 -15 7
-4 3 -4 -10 -2 -18 4 -21 2 -12 -9 7 -9 8 -15 1 -19 -14 -9 -2 -37 13 -30 6 3
2 -2 -8 -10 -11 -9 -16 -16 -10 -16 5 0 9 -13 9 -30 0 -31 -9 -40 -18 -17 -3
7 -6 5 -6 -5 -1 -10 5 -18 12 -18 9 0 9 -2 -1 -9 -11 -6 -10 -10 4 -15 15 -6
15 -9 -7 -32 -13 -14 -18 -24 -10 -22 9 2 15 -8 18 -29 3 -21 0 -33 -8 -33 -6
0 -8 -7 -5 -16 5 -14 4 -15 -9 -4 -13 11 -14 10 -9 -4 3 -9 11 -16 18 -16 6 0
4 -5 -4 -10 -8 -5 -10 -10 -5 -10 7 0 7 -3 0 -8 -6 -4 -23 -32 -39 -62 -16
-30 -35 -62 -42 -71 -8 -8 -14 -23 -14 -32 0 -9 -5 -19 -12 -23 -7 -5 -8 -3
-3 7 7 12 6 12 -7 1 -14 -11 -22 -7 -57 27 -42 41 -49 55 -31 66 6 3 10 11 10
17 0 6 -9 3 -19 -6 -14 -13 -21 -14 -27 -5 -5 8 -3 10 6 4 8 -5 11 -3 8 6 -3
8 -10 13 -16 12 -6 -1 -8 10 -6 27 4 25 1 30 -20 36 -27 6 -25 33 3 35 14 1
14 2 -1 6 -9 2 -20 13 -23 24 -7 20 -7 20 -22 2 -14 -17 -14 -17 -9 1 5 14 2
17 -11 12 -15 -6 -14 -4 2 14 10 11 25 18 32 16 21 -8 15 2 -8 15 -12 6 -19 7
-15 1 3 -5 -2 -13 -11 -16 -24 -9 -45 26 -23 39 13 8 13 35 -1 35 -5 0 -8 -4
-4 -9 3 -5 1 -12 -5 -16 -6 -3 -13 1 -16 9 -4 11 -11 13 -23 6 -13 -6 -18 -5
-18 6 0 7 3 12 5 9 3 -3 11 0 19 6 7 6 13 8 13 4 0 -4 8 1 18 12 9 10 13 12 7
3 -5 -8 1 -6 15 6 14 12 40 34 59 50 37 31 37 32 101 109 40 48 65 92 62 108
-1 4 5 7 13 7 8 0 16 5 16 10 2 16 5 22 22 62 10 21 17 44 17 52 0 8 5 18 10
21 6 4 8 16 4 28 -6 20 -5 20 10 8 14 -12 16 -12 11 1 -4 9 -16 20 -28 26 -25
12 -12 14 18 3z m-3105 -17 c0 -8 -19 -13 -24 -6 -3 5 1 9 9 9 8 0 15 -2 15
-3z m3680 -35 c0 -5 -7 -9 -15 -9 -15 0 -20 12 -9 23 8 8 24 -1 24 -14z m0
-40 c-9 -16 -14 -18 -26 -8 -8 6 -14 14 -14 16 0 3 7 0 15 -7 12 -10 15 -10
15 4 0 9 5 16 10 16 7 0 7 -7 0 -21z m-610 -4 c0 -8 -4 -15 -10 -15 -5 0 -7 7
-4 15 4 8 8 15 10 15 2 0 4 -7 4 -15z m-1190 -21 c0 -8 -19 -13 -24 -6 -3 5 1
9 9 9 8 0 15 -2 15 -3z m-41 -17 c8 -10 7 -14 -4 -14 -8 0 -11 5 -8 10 4 6 -1
8 -11 4 -10 -4 -15 -3 -11 3 8 14 20 12 34 -3z m51 -32 c0 -2 -9 -3 -19 -2
-11 0 -18 5 -15 9 4 6 34 0 34 -7z m2635 -154 c3 -5 2 -12 -3 -15 -5 -3 -9 1
-9 9 0 17 3 19 12 6z m-2175 -11 c0 -5 -2 -10 -4 -10 -3 0 -8 5 -11 10 -3 6
-1 10 4 10 6 0 11 -4 11 -10z m544 -39 c-10 -10 -21 -16 -24 -14 -3 3 4 11 14
19 28 20 33 17 10 -5z m-1249 -41 c3 -5 1 -10 -4 -10 -6 0 -11 5 -11 10 0 6 2
10 4 10 3 0 8 -4 11 -10z m65 -31 c-7 -11 -14 -18 -17 -15 -3 3 0 12 7 21 18
21 23 19 10 -6z m54 1 c14 -5 26 -14 26 -20 0 -8 -6 -8 -20 0 -14 8 -26 8 -40
0 -19 -10 -20 -10 -8 9 7 12 14 21 15 21 1 0 13 -4 27 -10z m-84 -5 c0 -7 -30
-13 -34 -7 -3 4 4 9 15 9 10 1 19 0 19 -2z m-1746 -34 c-10 -10 -21 -17 -23
-15 -6 6 20 34 32 34 6 0 2 -8 -9 -19z m1856 -14 c0 -4 4 -6 9 -3 5 3 12 -1
15 -9 4 -12 2 -13 -13 -6 -10 6 -22 7 -26 3 -5 -4 -4 -1 0 7 6 10 4 13 -6 9
-10 -4 -15 1 -16 13 -2 16 1 17 18 6 10 -6 19 -15 19 -20z m38 -2 c-3 -3 -9 2
-12 12 -6 14 -5 15 5 6 7 -7 10 -15 7 -18z m432 5 c0 -5 -5 -10 -11 -10 -5 0
-7 5 -4 10 3 6 8 10 11 10 2 0 4 -4 4 -10z m-2310 -24 c0 -3 -4 -8 -10 -11 -5
-3 -10 -1 -10 4 0 6 5 11 10 11 6 0 10 -2 10 -4z m2560 -61 c0 -12 -19 -12
-23 0 -4 9 -1 12 9 8 7 -3 14 -7 14 -8z m47 0 c0 -8 -4 -15 -9 -15 -5 0 -6 -6
-2 -12 5 -9 2 -8 -9 1 -16 13 -16 14 0 27 10 7 18 14 19 14 0 0 1 -7 1 -15z
m-577 -15 c-8 -5 -19 -10 -25 -10 -5 0 -3 5 5 10 8 5 20 10 25 10 6 0 3 -5 -5
-10z m40 -60 c0 -5 -5 -10 -11 -10 -5 0 -7 5 -4 10 3 6 8 10 11 10 2 0 4 -4 4
-10z m578 -25 c-3 -3 -9 2 -12 12 -6 14 -5 15 5 6 7 -7 10 -15 7 -18z m-2370
-28 c27 10 97 -37 130 -87 18 -28 30 -55 27 -60 -3 -5 -1 -11 5 -15 14 -9 12
-25 -2 -22 -8 1 -13 -9 -13 -26 1 -26 0 -27 -12 -11 -7 9 -9 22 -5 28 13 21
13 48 0 40 -7 -4 -10 -3 -5 1 4 5 -1 18 -10 29 -17 20 -17 20 0 7 21 -16 22
-3 1 24 -13 17 -16 18 -25 5 -8 -12 -9 -10 -4 8 6 21 -3 28 -30 22 -5 -1 -7 2
-3 6 13 12 -29 35 -69 36 -21 1 -32 3 -25 6 10 3 10 7 0 20 -12 16 -11 16 7 1
11 -9 26 -14 33 -12z m-1608 -101 c0 -2 -8 -10 -17 -17 -16 -13 -17 -12 -4 4
13 16 21 21 21 13z m2927 -102 c-9 -9 -28 6 -21 18 4 6 10 6 17 -1 6 -6 8 -13
4 -17z m73 -44 c5 0 10 -4 10 -10 0 -5 -3 -10 -8 -10 -12 0 -62 50 -62 62 0 6
11 -1 25 -16 13 -14 29 -26 35 -26z m1365 40 c3 -5 1 -10 -4 -10 -6 0 -11 5
-11 10 0 6 2 10 4 10 3 0 8 -4 11 -10z m2105 -19 c0 -13 -29 -35 -37 -27 -3 3
-1 6 6 6 8 0 11 7 7 15 -3 9 0 15 9 15 8 0 15 -4 15 -9z m-6040 -11 c0 -5 -5
-10 -11 -10 -5 0 -7 5 -4 10 3 6 8 10 11 10 2 0 4 -4 4 -10z m1326 -22 c4 -7
3 -8 -4 -4 -7 4 -12 2 -12 -5 0 -7 -3 -10 -6 -6 -6 5 3 27 11 27 2 0 7 -5 11
-12z m1283 -24 c4 3 13 0 21 -6 12 -8 12 -9 -2 -4 -10 3 -20 1 -23 -5 -10 -15
-25 0 -18 18 4 11 8 13 11 5 2 -7 7 -10 11 -8z m2034 -97 c4 3 7 1 7 -6 0 -7
5 -9 10 -6 6 3 10 1 10 -6 0 -9 3 -9 14 0 11 9 15 9 18 0 2 -7 24 -13 49 -14
41 -2 90 -10 132 -21 9 -3 15 -10 11 -15 -3 -5 -10 -7 -15 -4 -5 4 -9 1 -9 -4
0 -6 -5 -11 -11 -11 -7 0 -25 -13 -40 -30 -16 -16 -29 -27 -29 -24 0 4 -6 1
-14 -5 -11 -9 -15 -9 -18 1 -5 14 -36 -15 -103 -97 -22 -26 -48 -56 -59 -66
-10 -10 -15 -23 -11 -30 5 -7 4 -10 -2 -6 -12 8 -26 -20 -17 -34 3 -5 -2 -9
-11 -9 -9 0 -14 -4 -10 -10 3 -5 -2 -26 -10 -47 -9 -21 -17 -50 -17 -65 -1
-16 -5 -28 -10 -28 -4 0 -8 -7 -8 -15 0 -8 -6 -15 -12 -15 -9 0 -9 -3 1 -9 12
-8 12 -12 2 -25 -8 -9 -11 -16 -7 -16 3 0 -3 -21 -13 -47 -10 -27 -19 -51 -19
-56 -1 -26 -15 -67 -22 -67 -5 0 -8 -8 -8 -17 0 -10 -2 -31 -6 -48 -4 -16 -9
-42 -11 -58 -2 -15 -7 -32 -10 -36 -3 -5 3 -17 12 -27 17 -17 17 -18 1 -11
-10 3 -18 5 -18 4 0 -1 -4 -17 -9 -35 -6 -18 -6 -30 -2 -28 8 6 6 -68 -3 -82
-3 -6 0 -13 6 -15 10 -4 10 -7 0 -15 -7 -5 -15 -22 -17 -38 -2 -16 -4 -29 -5
-29 -1 0 -4 -13 -5 -30 -2 -16 -5 -43 -8 -60 -3 -16 -8 -52 -12 -80 -4 -27
-11 -55 -16 -61 -5 -6 -6 -14 -2 -17 3 -4 1 -7 -5 -7 -6 0 -9 -9 -7 -20 2 -11
0 -18 -6 -15 -5 4 -9 4 -9 1 0 -2 -3 -13 -6 -23 -5 -15 -4 -16 5 -3 8 12 10 7
7 -20 -3 -19 -6 -36 -7 -37 -1 -2 -2 -7 -3 -12 0 -5 -4 -13 -8 -17 -4 -3 -6 3
-3 15 2 11 0 21 -6 21 -14 0 -11 -40 5 -46 21 -8 7 -53 -21 -68 -23 -12 -24
-14 -9 -29 10 -10 12 -18 6 -22 -5 -3 -10 -1 -10 4 0 6 -5 11 -12 11 -6 0 -8
-3 -5 -7 4 -3 2 -12 -4 -20 -9 -9 -8 -13 0 -13 6 0 11 -5 11 -11 0 -5 -5 -7
-11 -3 -7 4 -10 1 -7 -7 3 -8 10 -13 16 -12 6 2 9 -4 5 -13 -5 -13 -7 -13 -14
-2 -5 7 -9 11 -10 8 0 -3 -2 -13 -4 -22 -2 -10 1 -18 6 -18 5 0 9 -5 9 -11 0
-5 -4 -8 -9 -5 -5 3 -11 -1 -15 -9 -3 -8 -1 -17 5 -20 5 -4 3 -13 -6 -22 -11
-10 -14 -27 -11 -51 3 -21 3 -29 0 -19 -3 9 -10 15 -15 12 -5 -4 -5 -15 2 -27
9 -16 8 -19 -2 -13 -9 6 -11 3 -6 -8 3 -8 -1 -21 -9 -28 -9 -7 -13 -21 -11
-31 3 -10 1 -18 -5 -18 -5 0 -6 -5 -3 -11 4 -6 -2 -13 -14 -16 -11 -3 -18 -9
-15 -14 3 -5 10 -7 15 -4 12 8 -11 -45 -29 -67 -8 -9 -15 -28 -16 -42 0 -14
-4 -26 -7 -26 -4 0 -13 -20 -20 -44 -7 -25 -15 -44 -18 -44 -19 2 -24 -4 -11
-12 10 -6 11 -10 3 -10 -7 0 -13 -4 -13 -9 0 -6 -10 -21 -23 -35 -12 -13 -29
-37 -37 -53 -8 -15 -23 -37 -32 -47 -10 -11 -18 -24 -18 -29 0 -5 -6 -7 -14
-4 -9 4 -12 0 -9 -12 3 -12 -6 -26 -24 -40 -15 -13 -30 -32 -33 -44 -3 -12
-11 -22 -18 -22 -7 0 -12 -4 -13 -10 0 -5 -7 -14 -15 -18 -8 -4 -14 -13 -14
-20 0 -7 -9 -18 -20 -25 -11 -7 -20 -19 -20 -26 0 -8 -5 -18 -12 -22 -7 -5 -8
-3 -3 6 5 9 4 11 -3 6 -7 -4 -12 -14 -12 -22 0 -8 -4 -13 -9 -10 -10 6 -29
-13 -30 -29 0 -5 -9 -11 -21 -13 -11 -2 -20 -7 -20 -12 0 -5 6 -8 13 -6 6 1 8
1 4 -2 -4 -2 -2 -11 5 -20 12 -15 11 -15 -4 -4 -13 11 -21 11 -40 1 -13 -6
-20 -8 -16 -4 4 5 3 14 -3 22 -6 7 -9 22 -6 34 7 25 -2 51 -14 43 -8 -4 -14
33 -10 59 0 4 -3 7 -9 7 -5 0 -10 9 -10 20 0 11 -4 20 -10 20 -5 0 -10 14 -10
30 0 17 -4 30 -9 30 -5 0 -8 8 -6 18 1 9 -2 26 -8 37 -6 11 -12 31 -13 45 -2
14 -7 34 -12 45 -24 50 -48 122 -47 140 0 11 -6 25 -12 30 -17 14 -21 77 -5
83 6 2 12 9 12 16 0 7 9 21 20 31 11 10 20 26 20 37 0 10 5 18 10 18 6 0 10 7
10 15 0 8 7 15 16 15 14 0 14 3 4 15 -11 13 -10 14 5 9 13 -5 16 -4 11 4 -4 7
-1 12 8 12 9 0 13 6 10 14 -3 7 2 16 10 19 9 4 16 17 16 29 0 18 2 20 9 9 8
-12 11 -9 16 12 4 15 11 27 15 27 5 0 11 8 14 18 3 9 21 34 38 54 18 20 44 53
58 73 14 20 31 42 38 50 6 7 12 18 12 24 0 6 5 11 10 11 6 0 10 6 10 13 0 7 9
23 20 35 11 12 20 24 20 27 0 3 14 24 31 45 19 23 28 43 24 51 -5 8 -4 10 4 5
6 -4 14 0 18 11 3 10 17 29 30 42 13 14 22 30 19 37 -6 15 28 56 39 46 4 -4 5
2 1 14 -4 12 0 28 10 40 15 18 15 18 4 -3 -6 -14 -7 -23 -1 -23 10 0 27 39 23
53 -1 4 5 10 14 14 11 4 12 8 4 13 -9 5 -6 10 9 15 11 3 21 10 21 15 0 5 -8 7
-17 4 -17 -5 -17 -5 0 6 9 6 15 15 12 21 -4 5 1 9 9 9 9 0 16 5 16 10 0 6 11
27 23 48 13 20 23 45 21 54 -1 10 2 16 8 15 10 -2 15 14 21 58 1 11 9 25 17
32 8 6 12 15 8 18 -4 4 0 14 8 22 8 8 12 18 9 23 -3 4 2 13 10 20 8 7 12 16 9
21 -3 5 -1 9 5 9 6 0 8 7 5 15 -4 8 -1 15 5 15 6 0 8 7 5 15 -4 9 0 15 10 15
9 0 13 6 10 14 -3 8 0 17 5 21 6 3 9 11 6 16 -4 5 -1 9 6 9 7 0 10 3 6 6 -3 3
3 22 14 41 11 20 18 42 15 50 -4 9 -2 11 6 7 7 -5 9 -1 6 12 -3 11 1 25 9 32
7 7 11 18 8 23 -4 5 3 25 15 44 12 19 19 39 15 45 -3 5 -1 10 5 10 6 0 8 5 5
10 -3 6 -1 10 5 10 6 0 8 5 5 10 -3 6 1 17 9 25 8 9 12 23 9 32 -5 12 -2 15 9
11 8 -4 21 -2 29 4 11 8 10 9 -3 4 -10 -3 -18 -1 -18 4 0 6 6 10 13 10 8 0 7
4 -3 10 -12 7 -12 10 -1 10 7 0 11 6 8 14 -3 8 2 20 11 28 13 11 15 11 7 -2
-4 -8 2 -5 14 7 22 24 28 43 11 43 -5 0 -9 -5 -7 -11 1 -6 -5 -14 -13 -16 -10
-3 -11 -2 -4 4 6 4 10 16 9 25 -2 9 4 25 12 35 13 17 13 16 3 -4 -12 -25 -6
-30 14 -11 10 9 11 20 5 37 -8 20 -7 22 8 17 10 -4 14 -4 11 0 -4 4 -3 16 3
28 10 21 10 21 -6 1 -17 -20 -17 -19 -10 5 4 14 12 30 18 35 7 7 7 6 2 -4 -6
-10 -4 -12 4 -7 9 6 9 11 -1 24 -8 10 -9 13 -1 9 6 -4 14 -3 18 3 3 5 2 10 -4
10 -5 0 -1 18 10 40 10 21 19 45 19 52 0 8 7 24 15 36 15 20 18 21 39 7 12 -8
26 -12 29 -8z m-850 -42 c-3 -9 -8 -14 -10 -11 -3 3 -2 9 2 15 9 16 15 13 8
-4z m-1442 -33 c-7 -2 -18 1 -23 6 -8 8 -4 9 13 5 13 -4 18 -8 10 -11z m730
-85 c-10 -9 -11 -8 -5 6 3 10 9 15 12 12 3 -3 0 -11 -7 -18z m1659 -21 c0 -2
-7 -6 -15 -10 -8 -3 -15 -1 -15 4 0 6 7 10 15 10 8 0 15 -2 15 -4z m-1430 -76
c8 -5 11 -10 5 -10 -5 0 -17 5 -25 10 -8 5 -10 10 -5 10 6 0 17 -5 25 -10z
m-3490 -269 c0 -13 -29 -8 -34 5 -3 7 2 10 15 7 10 -3 19 -9 19 -12z m1825 -9
c-3 -3 -11 0 -18 7 -9 10 -8 11 6 5 10 -3 15 -9 12 -12z m-1805 -33 c0 -5 -4
-9 -8 -9 -5 0 -9 7 -9 15 0 8 4 12 9 9 4 -3 8 -9 8 -15z m18 -44 c-3 -3 -9 2
-12 12 -6 14 -5 15 5 6 7 -7 10 -15 7 -18z m1177 -85 c-5 -9 16 -15 38 -11 5
1 6 -3 2 -9 -3 -6 -9 -9 -13 -7 -4 2 -15 7 -25 10 -15 6 -16 27 -1 27 3 0 2
-4 -1 -10z m39 -55 c-4 -8 -8 -15 -10 -15 -2 0 -4 7 -4 15 0 8 4 15 10 15 5 0
7 -7 4 -15z m6 -29 c0 -2 -7 -7 -16 -10 -8 -3 -12 -2 -9 4 6 10 25 14 25 6z
m0 -26 c0 -5 -5 -10 -11 -10 -5 0 -7 5 -4 10 3 6 8 10 11 10 2 0 4 -4 4 -10z
m20 -31 c0 -5 -4 -8 -9 -4 -5 3 -13 -4 -16 -16 -4 -11 -9 -18 -12 -16 -7 8 16
47 27 47 6 0 10 -5 10 -11z m35 -47 c19 -11 18 -11 -7 -10 -15 1 -24 6 -22 10
8 12 -11 9 -24 -4 -7 -7 -12 -9 -12 -6 0 13 33 39 39 30 3 -5 15 -14 26 -20z
m-90 -111 c3 -5 2 -12 -3 -15 -5 -3 -9 1 -9 9 0 17 3 19 12 6z m30 -20 c3 -5
2 -12 -3 -15 -5 -3 -9 1 -9 9 0 17 3 19 12 6z m1105 -105 c0 -3 -4 -8 -10 -11
-5 -3 -10 -1 -10 4 0 6 5 11 10 11 6 0 10 -2 10 -4z m3554 -272 c3 -8 2 -12
-4 -9 -6 3 -10 10 -10 16 0 14 7 11 14 -7z m-5859 -95 c11 -17 -1 -21 -15 -4
-8 9 -8 15 -2 15 6 0 14 -5 17 -11z m6320 -139 c-3 -5 -12 -10 -18 -10 -7 0
-6 4 3 10 19 12 23 12 15 0z m-5854 -253 c-10 -9 -11 -8 -5 6 3 10 9 15 12 12
3 -3 0 -11 -7 -18z m594 -457 c3 -6 -1 -7 -9 -4 -18 7 -21 14 -7 14 6 0 13 -4
16 -10z m-760 -400 c3 -5 1 -10 -4 -10 -6 0 -11 5 -11 10 0 6 2 10 4 10 3 0 8
-4 11 -10z m4625 -200 c0 -5 -5 -10 -11 -10 -5 0 -7 5 -4 10 3 6 8 10 11 10 2
0 4 -4 4 -10z m-3675 -188 c-3 -3 -11 0 -18 7 -9 10 -8 11 6 5 10 -3 15 -9 12
-12z m1403 -202 c-13 -21 -28 -27 -28 -10 0 5 8 14 18 19 23 14 24 14 10 -9z
m1832 -14 c0 -3 -4 -8 -10 -11 -5 -3 -10 -1 -10 4 0 6 5 11 10 11 6 0 10 -2
10 -4z m-3470 -1001 c7 -9 8 -15 2 -15 -5 0 -12 7 -16 15 -3 8 -4 15 -2 15 2
0 9 -7 16 -15z m1645 -84 c-3 -6 -11 -11 -16 -11 -5 0 -4 6 3 14 14 16 24 13
13 -3z m-1095 -295 c0 -2 -7 -7 -16 -10 -8 -3 -12 -2 -9 4 6 10 25 14 25 6z
m3863 -463 c-7 -2 -19 -2 -25 0 -7 3 -2 5 12 5 14 0 19 -2 13 -5z m-25 -18 c3
-3 -4 -4 -16 -2 -12 2 -24 6 -28 10 -4 3 4 4 16 2 12 -2 25 -7 28 -10z"/>
<path d="M6275 6880 c3 -5 8 -10 11 -10 2 0 4 5 4 10 0 6 -5 10 -11 10 -5 0
-7 -4 -4 -10z"/>
<path d="M6270 6719 c0 -5 5 -7 10 -4 6 3 10 8 10 11 0 2 -4 4 -10 4 -5 0 -10
-5 -10 -11z"/>
<path d="M6015 6640 c3 -5 8 -10 11 -10 2 0 4 5 4 10 0 6 -5 10 -11 10 -5 0
-7 -4 -4 -10z"/>
<path d="M6450 4610 c-7 -18 -5 -49 3 -41 5 5 7 17 4 27 -3 11 -6 17 -7 14z"/>
<path d="M6676 7702 c-2 -4 4 -19 15 -32 10 -14 19 -20 19 -14 0 6 -7 17 -15
24 -8 7 -12 16 -9 21 3 5 3 9 0 9 -3 0 -7 -4 -10 -8z"/>
<path d="M2860 7620 c0 -5 5 -10 10 -10 6 0 10 5 10 10 0 6 -4 10 -10 10 -5 0
-10 -4 -10 -10z"/>
<path d="M6716 7563 c5 -5 12 -12 16 -18 4 -6 8 -2 8 8 0 9 -7 17 -17 17 -9 0
-12 -3 -7 -7z"/>
<path d="M7756 7562 c-3 -4 4 -9 15 -9 23 -2 25 3 4 10 -8 4 -16 3 -19 -1z"/>
<path d="M3860 7481 c0 -7 -5 -9 -12 -5 -7 5 -8 3 -3 -5 5 -9 10 -10 18 -2 6
6 8 14 4 18 -4 3 -7 1 -7 -6z"/>
<path d="M3107 7429 c7 -7 15 -10 18 -7 3 3 -2 9 -12 12 -14 6 -15 5 -6 -5z"/>
<path d="M3310 7332 c0 -12 3 -12 15 -2 8 7 15 13 15 15 0 1 -7 2 -15 2 -8 0
-15 -7 -15 -15z"/>
<path d="M3270 7305 c0 -8 5 -15 10 -15 6 0 10 7 10 15 0 8 -4 15 -10 15 -5 0
-10 -7 -10 -15z"/>
<path d="M3182 7275 c-7 -8 -9 -15 -4 -15 5 0 15 7 22 15 16 19 -1 19 -18 0z"/>
<path d="M2110 6176 c0 -2 8 -10 18 -17 15 -13 16 -12 3 4 -13 16 -21 21 -21
13z"/>
<path d="M840 5640 c0 -5 5 -10 11 -10 5 0 7 5 4 10 -3 6 -8 10 -11 10 -2 0
-4 -4 -4 -10z"/>
<path d="M2135 5640 c-3 -5 -2 -10 4 -10 5 0 13 5 16 10 3 6 2 10 -4 10 -5 0
-13 -4 -16 -10z"/>
<path d="M495 5560 c4 -6 11 -8 16 -5 14 9 11 15 -7 15 -8 0 -12 -5 -9 -10z"/>
<path d="M571 5310 c-13 -11 -19 -20 -14 -20 6 0 18 9 28 20 23 25 17 25 -14
0z"/>
<path d="M473 5109 c-2 -23 3 -25 10 -4 4 8 3 16 -1 19 -4 3 -9 -4 -9 -15z"/>
<path d="M3155 3860 c3 -5 8 -10 11 -10 2 0 4 5 4 10 0 6 -5 10 -11 10 -5 0
-7 -4 -4 -10z"/>
<path d="M3280 3735 c-11 -13 -10 -14 4 -9 9 3 16 10 16 15 0 13 -6 11 -20 -6z"/>
<path d="M3370 3689 c0 -5 5 -7 10 -4 6 3 10 8 10 11 0 2 -4 4 -10 4 -5 0 -10
-5 -10 -11z"/>
<path d="M3396 3673 c-6 -14 -5 -15 5 -6 7 7 10 15 7 18 -3 3 -9 -2 -12 -12z"/>
<path d="M3395 3610 c10 -11 20 -20 22 -20 2 0 -1 9 -7 20 -6 11 -16 20 -22
20 -6 0 -3 -9 7 -20z"/>
<path d="M7015 3310 c3 -5 8 -10 11 -10 2 0 4 5 4 10 0 6 -5 10 -11 10 -5 0
-7 -4 -4 -10z"/>
<path d="M6530 2719 c0 -5 5 -7 10 -4 6 3 10 8 10 11 0 2 -4 4 -10 4 -5 0 -10
-5 -10 -11z"/>
<path d="M2580 2686 c0 -2 8 -10 18 -17 15 -13 16 -12 3 4 -13 16 -21 21 -21
13z"/>
<path d="M6460 2550 c-9 -6 -10 -10 -3 -10 6 0 15 5 18 10 8 12 4 12 -15 0z"/>
</g>
</svg>
